<?xml version="1.0" encoding="UTF-8"?>
<svg xmlns="http://www.w3.org/2000/svg" viewBox="0 0 1000 1000" width="1000" height="1000">
  <title>angular_path_100</title>
  <desc>100 vertices; closed polyline path for vertex-decimation benchmarking.</desc>
  <path d="M 350.0000,500.0000 L 348.7167,519.5789 L 344.8889,538.8229 L 338.5819,557.4025 L 329.9038,575.0000 L 319.0030,591.3142 L 306.0660,606.0660 L 291.3142,619.0030 L 275.0000,629.9038 L 257.4025,638.5819 L 238.8229,644.8889 L 219.5789,648.7167 L 250.0000,350.0000 L 258.3333,650.0000 L 266.6667,350.0000 L 275.0000,650.0000 L 283.3333,350.0000 L 291.6667,650.0000 L 300.0000,350.0000 L 308.3333,650.0000 L 316.6667,350.0000 L 325.0000,650.0000 L 333.3333,350.0000 L 341.6667,650.0000 L 481.0453,626.2206 L 463.8769,635.7194 L 445.6155,642.8959 L 426.5736,647.6274 L 407.0770,649.8330 L 387.4593,649.4749 L 368.0562,646.5592 L 349.1997,641.1359 L 331.2124,633.2977 L 314.4020,623.1787 L 299.0563,610.9521 L 285.4377,596.8271 L 450.0000,350.0000 L 458.3333,650.0000 L 466.6667,350.0000 L 475.0000,650.0000 L 483.3333,350.0000 L 491.6667,650.0000 L 500.0000,350.0000 L 508.3333,650.0000 L 516.6667,350.0000 L 525.0000,650.0000 L 533.3333,350.0000 L 541.6667,650.0000 L 537.5780,636.3946 L 520.3089,627.0800 L 504.4034,615.5911 L 490.1336,602.1243 L 477.7436,586.9102 L 467.4455,570.2090 L 459.4154,552.3065 L 453.7908,533.5091 L 450.6678,514.1382 L 450.0999,494.5255 L 452.0969,475.0065 L 456.6246,455.9151 L 650.0000,350.0000 L 658.3333,650.0000 L 666.6667,350.0000 L 675.0000,650.0000 L 683.3333,350.0000 L 691.6667,650.0000 L 700.0000,350.0000 L 708.3333,650.0000 L 716.6667,350.0000 L 725.0000,650.0000 L 733.3333,350.0000 L 741.6667,650.0000 L 651.5011,521.1680 L 650.0086,501.6039 L 651.0824,482.0124 L 654.7043,462.7286 L 660.8122,444.0826 L 669.3017,426.3933 L 680.0274,409.9635 L 692.8059,395.0742 L 707.4185,381.9802 L 723.6153,370.9056 L 741.1189,362.0398 L 759.6301,355.5345 L 850.0000,350.0000 L 858.3333,650.0000 L 866.6667,350.0000 L 875.0000,650.0000 L 883.3333,350.0000 L 891.6667,650.0000 L 900.0000,350.0000 L 908.3333,650.0000 L 916.6667,350.0000 L 925.0000,650.0000 L 933.3333,350.0000 L 941.6667,650.0000 L 941.6667,650.0000 L 941.6667,650.0000 L 941.6667,650.0000 L 941.6667,650.0000 Z" fill="none" stroke="#000" stroke-width="1.5" stroke-linejoin="round"/>
</svg>
