<?xml version="1.0" encoding="UTF-8"?>
<svg id="Layer_1" xmlns="http://www.w3.org/2000/svg" version="1.1" viewBox="0 0 1000 1000">
  <!-- Generator: Adobe Illustrator 30.4.0, SVG Export Plug-In . SVG Version: 2.1.4 Build 226)  -->
  <defs>
    <style>
      .st0 {
        fill: none;
        stroke: #000;
        stroke-linejoin: round;
        stroke-width: 1.5px;
      }
    </style>
  </defs>
  <path class="st0" d="M350,500c.3,59.1-37.9,116.2-92.6,138.6-9,3.7-28.1,8.8-37.8,10.1,0,0,30.4-298.7,30.4-298.7l8.3,300,8.3-300s8.3,300,8.3,300l8.3-300,8.3,300s8.3-300,8.3-300c0,0,8.3,300,8.3,300,0,0,8.3-300,8.3-300,0,0,8.3,300,8.3,300l8.3-300s8.3,300,8.3,300c-3.6,4,190.7-40.7,122.2-14.3-8.9,4.1-27.6,10.1-37.3,11.9-44.7,8-93.9-6.1-127.5-36.7-46.3-3.3,154.5-250.5,150.9-261,0,0,8.3,300,8.3,300,0,0,8.3-300,8.3-300l8.3,300s8.3-300,8.3-300l8.3,300,8.3-300s8.3,300,8.3,300l8.3-300,8.3,300s8.3-300,8.3-300c0,0,8.3,300,8.3,300,0,0-4.1-13.6-4.1-13.6-8.9-4.2-25.5-14.5-33.2-20.8-24.4-20.3-43.4-51.1-50.6-82.1-5.4-24.2-4.4-53.8,2.8-77.6,303.2-195.8,164-35.9,201.7,194.1,0,0,8.3-300,8.3-300l8.3,300s8.3-300,8.3-300c0,0,8.3,300,8.3,300,0,0,8.3-300,8.3-300l8.3,300,8.3-300s8.3,300,8.3,300c0,0,8.3-300,8.3-300,0,0,8.3,300,8.3,300-14.9-26.9-109.5-132.9-90.6-168,4.7-38.3,26-76.1,56.3-100,29.6-31.2,103.8-29.6,142.6-32,0,0,8.3,300,8.3,300,0,0,8.3-300,8.3-300s8.3,300,8.3,300c0,0,8.3-300,8.3-300,0,0,8.3,300,8.3,300,0,0,8.3-300,8.3-300s8.3,300,8.3,300c0,0,8.3-300,8.3-300,0,0,8.3,300,8.3,300,0,0,8.3-300,8.3-300l8.3,300h0s-591.7-150-591.7-150Z"/>
</svg>