<?xml version="1.0" encoding="UTF-8"?>
<svg xmlns="http://www.w3.org/2000/svg" viewBox="0 0 1000 1000" width="1000" height="1000">
  <title>dense_silhouette_240</title>
  <desc>239 vertices; closed polyline path for vertex-decimation benchmarking.</desc>
  <path d="M 370.2789,199.0500 L 369.7282,192.6427 L 371.1851,186.7647 L 372.3849,178.8374 L 372.6847,172.0311 L 373.8669,166.3642 L 375.4157,159.2255 L 378.9343,153.5020 L 380.6800,147.3028 L 384.7880,139.9942 L 388.0283,135.3963 L 390.6533,128.5079 L 395.7422,123.2611 L 398.1565,117.3818 L 404.0862,113.2205 L 408.6904,108.5356 L 413.0855,104.3374 L 417.9454,99.0751 L 424.2467,95.0648 L 429.9203,91.1275 L 435.4091,86.5083 L 440.4370,83.7479 L 446.2838,80.7047 L 452.6142,78.1905 L 460.0992,76.0923 L 466.0939,73.8487 L 472.5054,73.7141 L 479.9596,71.8188 L 485.7536,71.1704 L 492.5231,69.9371 L 500.9790,70.2800 L 506.9176,70.5474 L 514.2744,71.2642 L 519.7946,70.6647 L 526.6594,72.3763 L 533.0684,75.3155 L 540.9249,75.9920 L 546.8987,78.4258 L 553.7049,81.1568 L 558.5485,83.6624 L 565.1227,86.9422 L 570.9722,91.7685 L 576.2109,94.2664 L 582.8067,98.9901 L 586.1688,102.4854 L 591.1432,108.3310 L 597.1930,112.8573 L 600.1560,117.9516 L 606.1645,123.6461 L 609.9693,129.9185 L 611.6063,135.4414 L 616.1943,141.0552 L 618.2946,147.4062 L 620.5886,153.2817 L 623.5448,160.7354 L 626.3221,165.8803 L 627.1604,172.3288 L 629.2247,180.4046 L 628.8847,186.6892 L 630.0398,192.5020 L 370.0000,200.5250 L 374.2294,206.0788 L 376.9836,212.5573 L 377.7634,218.0607 L 377.3763,223.0011 L 377.4019,229.6483 L 379.1468,235.0390 L 382.7798,242.8582 L 387.2202,248.7574 L 390.8532,254.6633 L 392.5981,259.6150 L 392.6237,265.1159 L 392.2366,272.7560 L 393.0164,278.8939 L 395.7706,283.1713 L 400.0000,289.9720 L 404.2294,295.1384 L 406.9836,302.5212 L 407.7634,308.5317 L 407.3763,313.2568 L 407.4019,319.9506 L 409.1468,326.0996 L 412.7798,331.5301 L 417.2202,338.7449 L 420.8532,343.8463 L 422.5981,349.4236 L 422.6237,356.0786 L 422.2366,362.4599 L 423.0164,367.4023 L 425.7706,373.6234 L 430.0000,380.0000 L 436.0217,389.6000 L 441.9826,399.2000 L 447.8225,408.8000 L 453.4824,418.4000 L 458.9052,428.0000 L 464.0361,437.6000 L 468.8234,447.2000 L 473.2185,456.8000 L 477.1773,466.4000 L 480.6597,476.0000 L 483.6305,485.6000 L 486.0597,495.2000 L 487.9229,504.8000 L 489.2012,514.4000 L 489.8816,524.0000 L 489.9574,533.6000 L 489.4277,543.2000 L 488.2979,552.8000 L 486.5794,562.4000 L 484.2896,572.0000 L 481.4516,581.6000 L 478.0940,591.2000 L 474.2508,600.8000 L 469.9607,610.4000 L 465.2671,620.0000 L 460.2174,629.6000 L 454.8625,639.2000 L 449.2566,648.8000 L 443.4562,658.4000 L 437.5200,668.0000 L 431.5078,677.6000 L 425.4804,687.2000 L 419.4986,696.8000 L 413.6229,706.4000 L 407.9125,716.0000 L 402.4252,725.6000 L 397.2163,735.2000 L 392.3385,744.8000 L 387.8410,754.4000 L 383.7692,764.0000 L 380.1642,773.6000 L 377.0625,783.2000 L 374.4954,792.8000 L 372.4887,802.4000 L 371.0628,812.0000 L 370.2320,821.6000 L 370.0047,831.2000 L 370.3833,840.8000 L 371.3639,850.4000 L 405.0000,860.0000 L 405.5204,863.1359 L 407.0760,866.2374 L 409.6496,869.2705 L 413.2132,872.2021 L 417.7276,875.0000 L 423.1434,877.6336 L 429.4012,880.0739 L 436.4326,882.2943 L 444.1604,884.2705 L 452.5000,885.9808 L 461.3600,887.4064 L 470.6434,888.5317 L 480.2484,889.3444 L 490.0698,889.8357 L 500.0000,890.0000 L 509.9302,889.8357 L 519.7516,889.3444 L 529.3566,888.5317 L 538.6400,887.4064 L 547.5000,885.9808 L 555.8396,884.2705 L 563.5674,882.2943 L 570.5988,880.0739 L 576.8566,877.6336 L 582.2724,875.0000 L 586.7868,872.2021 L 590.3504,869.2705 L 592.9240,866.2374 L 594.4796,863.1359 L 580.0000,860.0000 L 573.9783,850.4000 L 568.0174,840.8000 L 562.1775,831.2000 L 556.5176,821.6000 L 551.0948,812.0000 L 545.9639,802.4000 L 541.1766,792.8000 L 536.7815,783.2000 L 532.8227,773.6000 L 529.3403,764.0000 L 526.3695,754.4000 L 523.9403,744.8000 L 522.0771,735.2000 L 520.7988,725.6000 L 520.1184,716.0000 L 520.0426,706.4000 L 520.5723,696.8000 L 521.7021,687.2000 L 523.4206,677.6000 L 525.7104,668.0000 L 528.5484,658.4000 L 531.9060,648.8000 L 535.7492,639.2000 L 540.0393,629.6000 L 544.7329,620.0000 L 549.7826,610.4000 L 555.1375,600.8000 L 560.7434,591.2000 L 566.5438,581.6000 L 572.4800,572.0000 L 578.4922,562.4000 L 584.5196,552.8000 L 590.5014,543.2000 L 596.3771,533.6000 L 602.0875,524.0000 L 607.5748,514.4000 L 612.7837,504.8000 L 617.6615,495.2000 L 622.1590,485.6000 L 626.2308,476.0000 L 629.8358,466.4000 L 632.9375,456.8000 L 635.5046,447.2000 L 637.5113,437.6000 L 638.9372,428.0000 L 639.7680,418.4000 L 639.9953,408.8000 L 639.6167,399.2000 L 638.6361,389.6000 L 540.0000,380.9903 L 539.6211,370.2998 L 533.4924,358.6997 L 525.7500,346.2852 L 525.2202,331.2420 L 519.8731,315.1637 L 509.8387,296.5992 L 507.5981,275.1766 L 494.7417,248.5511 L 484.2366,217.4404 L 474.3594,179.1420 L 457.5000,132.7622 L 434.7974,70.8865 L 407.4019,-9.1892 L 374.8532,-123.2807 L 315.0000,-295.8583 L 222.5981,-580.5240 L 30.0000,-1149.6620 L -540.0000,-2860.5715 Z" fill="none" stroke="#000" stroke-width="1.5" stroke-linejoin="round"/>
</svg>
