<?xml version="1.0" encoding="UTF-8"?>
<svg id="Layer_1" xmlns="http://www.w3.org/2000/svg" version="1.1" viewBox="0 0 1000 1000">
  <!-- Generator: Adobe Illustrator 30.4.0, SVG Export Plug-In . SVG Version: 2.1.4 Build 226)  -->
  <defs>
    <style>
      .st0 {
        fill: none;
        stroke: #000;
        stroke-linejoin: round;
        stroke-width: 1.5px;
      }
    </style>
  </defs>
  <path class="st0" d="M370.3,199.1c-1.4-6.1,1.5-14.1,2.1-20.2.3-8.2,1.5-18.6,6.5-25.3,1.4-8.8,9.4-16.5,11.7-25,3-1.8,6.6-7.8,7.5-11.1,3.1-1.5,8.3-6.4,10.5-8.8,24.9-27.2,61.7-40.5,98.2-38,8.5.8,18.6-.4,26.1,4.8,6.7-.2,14.7,3.2,20.6,5.8,17.5,8.8,35.2,20.8,46.5,36.8,5,4.2,10.5,10.8,11.4,17.5,2.6,2.9,6.2,8,6.7,12,4.7,12.4,11.9,25.6,10.6,39.3,19.1,18.8-281.8,1.1-254.7,19.4,4.3,7,3.2,15.9,3.2,23.6,2.1,11.1,12,19.5,15.2,30-5.1,27.9,17.3,29.7,14.8,53.6-1.6,11.6,7.6,21.5,13.5,30.6,3.8,12.5-1.4,25.3,9.1,36.2,78,115.6,79.8,181.4,1.5,297.6-27.5,44-58.2,90.7-61.3,144-3.1,36.6,4.8,28.8,34.8,38.4,13.6,40.4,146.2,34.1,177.3,15,15-9.9,15.5-12.5-2.3-15-15.4-24.5-31.5-50.2-43.2-76.8-74.5-154.4,118.7-247.3,101.9-393.6,0,0-98.6-8.6-98.6-8.6,2.2-17.9-18.6-31.4-14.8-49.7-4.7-17.4-19.1-37.1-17.6-56.1-14.9-26.5-26.4-66.6-33.2-96C335.9-221,171-746,30-1149.7c0,0-570-1710.9-570-1710.9,0,0,910.3,3059.6,910.3,3059.6Z"/>
</svg>