<?xml version="1.0" encoding="UTF-8"?>
<svg xmlns="http://www.w3.org/2000/svg" viewBox="0 0 1000 1000" width="1000" height="1000">
  <title>heart_140</title>
  <desc>140 vertices; closed polyline path for vertex-decimation benchmarking.</desc>
  <path d="M 500.0000,370.0000 L 500.0318,369.0934 L 500.2535,366.3951 L 500.8514,361.9694 L 502.0039,355.9213 L 503.8784,348.3946 L 506.6278,339.5679 L 510.3870,329.6506 L 515.2705,318.8780 L 521.3699,307.5054 L 528.7517,295.8022 L 537.4556,284.0459 L 547.4940,272.5154 L 558.8510,261.4849 L 571.4823,251.2179 L 585.3160,241.9613 L 600.2534,233.9406 L 616.1703,227.3551 L 632.9192,222.3744 L 650.3319,219.1355 L 668.2217,217.7407 L 686.3870,218.2567 L 704.6143,220.7144 L 722.6824,225.1098 L 740.3655,231.4055 L 757.4376,239.5331 L 773.6763,249.3966 L 788.8664,260.8759 L 802.8040,273.8309 L 815.2997,288.1062 L 826.1821,303.5357 L 835.3009,319.9469 L 842.5292,337.1661 L 847.7659,355.0224 L 850.9377,373.3517 L 852.0000,392.0000 L 850.9377,410.8269 L 847.7659,429.7074 L 842.5292,448.5338 L 835.3009,467.2166 L 826.1821,485.6847 L 815.2997,503.8853 L 802.8040,521.7821 L 788.8664,539.3547 L 773.6763,556.5956 L 757.4376,573.5082 L 740.3655,590.1041 L 722.6824,606.3996 L 704.6143,622.4133 L 686.3870,638.1628 L 668.2217,653.6621 L 650.3319,668.9189 L 632.9192,683.9325 L 616.1703,698.6923 L 600.2534,713.1764 L 585.3160,727.3507 L 571.4823,741.1691 L 558.8510,754.5738 L 547.4940,767.4962 L 537.4556,779.8583 L 528.7517,791.5746 L 521.3699,802.5543 L 515.2705,812.7039 L 510.3870,821.9299 L 506.6278,830.1411 L 503.8784,837.2521 L 502.0039,843.1855 L 500.8514,847.8742 L 500.2535,851.2637 L 500.0318,853.3139 L 500.0000,854.0000 L 499.9682,853.3139 L 499.7465,851.2637 L 499.1486,847.8742 L 497.9961,843.1855 L 496.1216,837.2521 L 493.3722,830.1411 L 489.6130,821.9299 L 484.7295,812.7039 L 478.6301,802.5543 L 471.2483,791.5746 L 462.5444,779.8583 L 452.5060,767.4962 L 441.1490,754.5738 L 428.5177,741.1691 L 414.6840,727.3507 L 399.7466,713.1764 L 383.8297,698.6923 L 367.0808,683.9325 L 349.6681,668.9189 L 331.7783,653.6621 L 313.6130,638.1628 L 295.3857,622.4133 L 277.3176,606.3996 L 259.6345,590.1041 L 242.5624,573.5082 L 226.3237,556.5956 L 211.1336,539.3547 L 197.1960,521.7821 L 184.7003,503.8853 L 173.8179,485.6847 L 164.6991,467.2166 L 157.4708,448.5338 L 152.2341,429.7074 L 149.0623,410.8269 L 148.0000,392.0000 L 149.0623,373.3517 L 152.2341,355.0224 L 157.4708,337.1661 L 164.6991,319.9469 L 173.8179,303.5357 L 184.7003,288.1062 L 197.1960,273.8309 L 211.1336,260.8759 L 226.3237,249.3966 L 242.5624,239.5331 L 259.6345,231.4055 L 277.3176,225.1098 L 295.3857,220.7144 L 313.6130,218.2567 L 331.7783,217.7407 L 349.6681,219.1355 L 367.0808,222.3744 L 383.8297,227.3551 L 399.7466,233.9406 L 414.6840,241.9613 L 428.5177,251.2179 L 441.1490,261.4849 L 452.5060,272.5154 L 462.5444,284.0459 L 471.2483,295.8022 L 478.6301,307.5054 L 484.7295,318.8780 L 489.6130,329.6506 L 493.3722,339.5679 L 496.1216,348.3946 L 497.9961,355.9213 L 499.1486,361.9694 L 499.7465,366.3951 L 499.9682,369.0934 Z" fill="none" stroke="#000" stroke-width="1.5" stroke-linejoin="round"/>
</svg>
