<?xml version="1.0" encoding="UTF-8"?>
<svg id="Layer_1" xmlns="http://www.w3.org/2000/svg" version="1.1" viewBox="0 0 1000 1000">
  <!-- Generator: Adobe Illustrator 30.4.0, SVG Export Plug-In . SVG Version: 2.1.4 Build 226)  -->
  <defs>
    <style>
      .st0 {
        fill: none;
        stroke: #000;
        stroke-linejoin: round;
        stroke-width: 1.5px;
      }
    </style>
  </defs>
  <path class="st0" d="M883.1,500c-1.5,51.7-5.3,112.4-44.4,150.8-21.8,27.2-21.6,65.4-33.2,96.6-22.8,24.8-59.6,35.2-87.3,52.9-14.5,10.7-28.5,31.2-46.1,37.4-13.5,12.8-37.4,18.4-54.1,25.3-16.6,7.1-39.5,16.3-57.5,18.9-25.1-4.1-54.3-12.8-79.8-14.3-58.5,14-87.7,23.1-133.4-24.6-20.9-13.4-47.5-26.1-70-36.4-14.8-10-31.4-27.8-46.8-37.1-40.6-25.8-59.8-52.1-59.4-101.9-12.5-44.8-67.5-75.3-54.8-127.3,11.4-44.5,5.1-93.9,20.8-137.6,4.2-39.9,6.4-85.6,42.1-111.1,76-38.5,45.2-99.7,130.1-121.9,16.9-5.6,39.5-14.5,54.8-23.7,24.2-5.1,53.8-8.5,77.1-17,25.7-4.7,51.9-24.2,79.3-21.3,26.6,5.7,48.8,30.2,74.6,37.1,40.2,4.9,60.2-5.5,97.4,21.7,19.7,15.6,43.7,33.6,62.6,50.1,15.9,19.2,29.8,45.6,44.8,65.4,18.7,18.4,47.3,33.3,58.8,58.2,12,25.6-2.1,56.6,3.8,82.7,3.3,25.2,20.4,51.3,20.5,77.1Z"/>
</svg>