<?xml version="1.0" encoding="UTF-8"?>
<svg xmlns="http://www.w3.org/2000/svg" viewBox="0 0 1000 1000" width="1000" height="1000">
  <title>noisy_circle_120</title>
  <desc>120 vertices; closed polyline path for vertex-decimation benchmarking.</desc>
  <path d="M 883.1075,500.0000 L 882.6220,520.0524 L 881.8998,540.1393 L 877.1570,559.7358 L 875.5733,579.8306 L 870.6040,599.3030 L 862.1367,617.6653 L 852.5523,635.3322 L 838.6717,650.7864 L 828.8091,667.5366 L 820.3411,684.9490 L 816.0025,705.2144 L 812.4967,727.0421 L 805.5019,747.3905 L 790.2692,761.3595 L 772.3638,772.3638 L 753.3409,781.3636 L 735.2416,790.4992 L 718.2086,800.3383 L 703.2874,813.0351 L 689.5547,828.3184 L 672.0746,837.7155 L 655.6347,849.5613 L 636.5673,855.7699 L 617.9463,863.0015 L 599.3240,870.6823 L 580.2689,877.6353 L 560.4909,881.9243 L 539.7165,877.8769 L 519.5977,873.9457 L 500.0000,869.3523 L 480.7360,867.5788 L 460.9115,871.9022 L 440.4077,876.2509 L 419.2758,879.7774 L 398.7673,877.8054 L 379.6879,870.2827 L 363.1368,856.5409 L 347.2931,842.9853 L 330.4347,832.7905 L 313.1178,823.6894 L 295.4484,814.9818 L 277.2782,806.5503 L 261.3840,794.6663 L 246.9664,781.0223 L 230.5128,769.4872 L 214.2029,757.3328 L 197.4859,744.9711 L 184.8783,728.9493 L 177.7193,709.2915 L 171.6293,689.5849 L 171.0672,667.5996 L 164.7039,649.2834 L 153.5471,632.9908 L 141.6819,616.4246 L 127.1794,599.8970 L 119.4202,580.8947 L 114.4983,561.0575 L 116.2204,540.3369 L 120.6433,519.8812 L 122.4697,500.0000 L 125.3745,480.3667 L 124.9613,460.5818 L 127.5670,441.0124 L 131.8188,421.7407 L 137.0508,402.7481 L 139.6443,382.9133 L 141.6805,362.4540 L 145.8050,342.3022 L 151.3653,322.3618 L 164.5713,306.3402 L 179.1705,291.6509 L 197.4583,280.1906 L 212.8318,267.4558 L 225.6082,252.9365 L 236.0763,236.0763 L 244.7733,216.5421 L 255.7169,198.3354 L 272.2448,186.5218 L 289.6085,176.0255 L 309.3238,169.7392 L 328.2568,162.9350 L 346.6223,155.5081 L 364.1413,146.0760 L 383.8117,142.4093 L 403.1471,138.5401 L 422.4559,135.1839 L 441.2565,129.1081 L 460.5219,124.3911 L 479.8172,114.8888 L 500.0000,108.7495 L 520.5542,107.8029 L 540.4759,114.8976 L 559.2613,125.8392 L 576.8483,138.4573 L 595.1561,144.8725 L 614.5795,147.3605 L 635.8540,146.0883 L 656.7668,147.8959 L 675.0847,156.3769 L 692.5249,166.5371 L 708.5580,178.8489 L 724.0471,191.6256 L 740.0379,203.5779 L 755.1485,216.6289 L 767.5455,232.4545 L 777.8736,249.8015 L 788.8481,266.0954 L 799.9867,282.0469 L 814.7179,295.6198 L 832.3950,308.0917 L 847.6863,322.8450 L 858.8044,340.2500 L 864.1877,360.2014 L 863.9619,381.7416 L 859.8703,403.5730 L 862.6206,422.9226 L 866.5580,441.9429 L 874.0909,460.6815 L 880.7870,480.0438 Z" fill="none" stroke="#000" stroke-width="1.5" stroke-linejoin="round"/>
</svg>
