<?xml version="1.0" encoding="UTF-8"?>
<svg xmlns="http://www.w3.org/2000/svg" viewBox="0 0 1000 1000" width="1000" height="1000">
  <title>organic_blob_150</title>
  <desc>150 vertices; closed polyline path for vertex-decimation benchmarking.</desc>
  <path d="M 747.4601,500.0000 L 747.6235,510.3785 L 744.8665,520.5620 L 739.9578,530.3137 L 735.2538,539.7902 L 732.6995,549.4618 L 732.1902,559.6163 L 731.7040,569.9556 L 729.0638,579.7684 L 723.7767,588.5994 L 717.3702,596.7794 L 711.9829,605.2292 L 708.4828,614.6144 L 705.7517,624.6077 L 701.7087,634.0150 L 695.1203,641.7632 L 686.6078,647.9035 L 678.0253,653.6673 L 670.8275,660.4177 L 664.8843,668.3743 L 658.7275,676.2848 L 650.9246,682.4364 L 641.3206,686.1831 L 631.0972,688.6242 L 621.6915,691.7551 L 613.5994,696.7600 L 606.0947,702.9404 L 598.0064,708.2743 L 588.7713,711.1785 L 578.8210,711.9433 L 569.0596,712.5437 L 560.0122,714.9395 L 551.4441,719.3330 L 542.7176,723.9336 L 533.4432,726.4767 L 523.7742,726.1966 L 514.1256,724.5203 L 504.6891,723.8577 L 495.2759,725.5271 L 485.6159,728.6282 L 475.7370,730.8470 L 465.9648,730.4859 L 456.5182,727.9396 L 447.1490,725.3316 L 437.2792,724.6407 L 426.5799,725.9640 L 415.4232,727.4203 L 404.6826,726.7511 L 394.9691,723.2020 L 385.9999,718.0622 L 376.7680,713.4442 L 366.4626,710.4213 L 355.3327,708.1489 L 344.6381,704.6817 L 335.6191,698.7024 L 328.3555,690.6305 L 321.5853,682.1911 L 313.7479,674.9024 L 304.3924,668.8439 L 294.6770,662.7370 L 286.4278,655.1693 L 280.5178,645.8237 L 275.9989,635.6599 L 270.8237,625.9907 L 263.6781,617.3112 L 255.2251,608.9808 L 247.2740,600.0613 L 241.6245,589.9759 L 238.2522,579.0263 L 235.2958,567.9645 L 230.6872,557.2442 L 224.0223,546.6781 L 217.0237,535.7482 L 212.1558,524.1710 L 210.5780,512.1304 L 211.2211,500.0000 L 211.7984,487.9208 L 210.8700,475.7211 L 209.1500,463.2571 L 208.9121,450.7662 L 212.0156,438.7870 L 218.2789,427.6663 L 225.6110,417.1571 L 231.7667,406.5913 L 236.1845,395.5480 L 240.3276,384.3864 L 246.2816,374.0531 L 254.8781,365.2431 L 264.9799,357.6667 L 274.5023,350.1797 L 282.2194,341.7731 L 288.7654,332.5776 L 296.0065,323.9175 L 305.4010,317.2593 L 316.8039,312.9263 L 328.7020,309.7543 L 339.5733,306.0774 L 349.1201,301.2230 L 358.3305,296.1642 L 368.4215,292.6654 L 379.6868,291.6114 L 391.2644,292.0079 L 401.9423,291.6169 L 411.2027,288.7596 L 419.5747,283.7429 L 428.0721,278.6288 L 437.3156,275.4899 L 447.1408,274.6335 L 456.9551,274.3507 L 466.3958,272.4328 L 475.6312,268.1466 L 485.0852,262.9358 L 494.9563,259.2159 L 505.0628,258.3064 L 515.1430,259.3085 L 525.2339,259.9158 L 535.6690,258.4503 L 546.6704,255.3450 L 557.9836,252.7856 L 569.0086,252.8389 L 579.3741,255.7117 L 589.3873,259.6448 L 599.8362,262.4991 L 611.2306,263.6230 L 623.1786,264.3811 L 634.5630,266.9301 L 644.4662,272.3576 L 653.0367,279.8091 L 661.4395,287.3113 L 670.8260,293.5068 L 681.1930,298.7648 L 691.2035,304.7494 L 699.2360,312.9050 L 704.7998,323.2215 L 709.0430,334.3146 L 713.8159,344.6537 L 720.0490,353.7998 L 726.8774,362.5982 L 732.3501,372.2645 L 735.1636,383.2638 L 735.9030,394.9692 L 736.6447,406.3057 L 739.2025,416.7009 L 743.5295,426.4741 L 747.7034,436.4006 L 749.5579,446.9548 L 748.5596,457.9593 L 746.2801,468.8876 L 745.0263,479.4246 L 745.8129,489.6974 Z" fill="none" stroke="#000" stroke-width="1.5" stroke-linejoin="round"/>
</svg>
