<?xml version="1.0" encoding="UTF-8"?>
<svg id="Layer_1" xmlns="http://www.w3.org/2000/svg" version="1.1" viewBox="0 0 1000 1000">
  <!-- Generator: Adobe Illustrator 30.4.0, SVG Export Plug-In . SVG Version: 2.1.4 Build 226)  -->
  <defs>
    <style>
      .st0 {
        fill: none;
        stroke: #000;
        stroke-linejoin: round;
        stroke-width: 1.5px;
      }
    </style>
  </defs>
  <path class="st0" d="M747.5,500c3,17.8-11.6,32.9-14.8,49.5,2.3,35-13.5,37.6-24.2,65.2-2.4,23.4-22.2,32-37.7,45.8-12.7,21.5-26.4,25.4-49.1,31.3-31.2,23.5-26.2,16.6-61.7,23.2-29.1,19.5-36.3,6.1-64.7,10.6-25.1,12.8-43.9-4.6-68.7.4-17.8,5.1-34.9-3.9-49.8-12.5-9.4-3.2-22.9-5.2-32.1-8.8-12.5-6.3-20.3-21.2-30.9-29.8-8.4-5.6-20.4-12.2-27.3-19.7-5.8-8-10.7-20.6-15.6-29.2-8.7-11.7-23.3-22.3-29.2-36-3.2-9.8-6.2-23.5-10.9-32.7-5.9-9.6-15-22.2-18.5-33.1-2.3-10.7-.9-25.4-.4-36.3-.5-11.1-3.3-26-2.9-37.2,5-23.8,26.1-42.3,31.4-66.4,7.9-18.7,29.8-27.4,41.9-42.6,11.9-23.1,34.2-29.3,57.4-35.7,21.1-13.6,37.9-15.4,62.4-14.5,8.8-1.6,18.6-8.5,26.1-13,11.4-5.4,26.4-2.9,38.3-6.2,21.3-11.8,34.1-16.6,58.8-12.5,36.8-7.6,37.5-11.1,74.6,2.6,18.5,1.2,40.2,1.9,53.2,17.3,12.5,14,34.3,18.5,46.2,33.1,5.5,8.9,10,22.4,14.6,31.7,7.7,11.7,19.6,24.1,21.3,38.6.6,10.1.9,23.8,4,33.4,3.9,8.8,9.7,20.5,10.4,30.3-1.7,17.1-7,35.9-2.1,53Z"/>
</svg>