<?xml version="1.0" encoding="UTF-8"?>
<svg id="Layer_1" xmlns="http://www.w3.org/2000/svg" version="1.1" viewBox="0 0 1000 1000">
  <!-- Generator: Adobe Illustrator 30.4.0, SVG Export Plug-In . SVG Version: 2.1.4 Build 226)  -->
  <defs>
    <style>
      .st0 {
        fill: none;
        stroke: #000;
        stroke-linejoin: round;
        stroke-width: 1.5px;
      }
    </style>
  </defs>
  <path class="st0" d="M80,555.4c4.5,11.8,6.1,53.8,18.7,60.9,5.1-7.1,7.2-19.2,18.7-13.6,5.9,16.1,15.4,52.1,18.7,69.2,0,0,9.3,37.4,9.3,37.4l9.3-5.9c23.8-92.1,8.4-228.8,46.7-311.6,35.9,29.1,38.2-74.3,46.7-93.5,33.1-17.2,28.5,270.1,56,309.3,6.4-1.2,14.9-9.1,18.7-14,21.5,31.9,14.5,88.8,37.3,118.6,28.2-99,19.8-223.6,46.7-323.1,5.1,3.9,14.4,12.6,18.7,17.4,26.2-28.4,19.4-87.5,37.3-121.6,32.7,96.3,22.1,223.3,46.7,322.6,8.6,4.6,19-1.8,28-.6,16.6,27.2,18.8,77.1,28,107.3,0,0,9.3-12.6,9.3-12.6,24.3-94.1,8.8-221.1,46.7-310,4.6,1.3,14,2.9,18.7,3.7,20.5-29.3,15.6-80.5,37.3-108.1,25.5,98.3,14.3,225,46.7,320.3,6.7,2.2,14.8-4,18.7-8.9,18.7,19.9,17.7,68.3,28,93.1,22.8,82.2,37.8-241.1,46.7-266,0,0,9.3-28.2,9.3-28.2l9.3-2.9c4.1,3,13.8,4.1,18.7,3.2,7.3-16.2,19.6-141.6,37.3-87.7,8.4,60.3,55.6,570.2,9.4,595.6-15.3.5-31.6-3.4-46.7-4-14-5.1-32-10.2-46.7-5.4-12.6-3.3-25,7.2-37.3,5-9,.7-18.8,7.9-28,6.1-14.5-7-33.5-1.9-46.7-12-21.2,3.3-47.2-6.6-65.3,9-5.2-1.6-14,0-18.7,2.2-4.9-1.6-13.8-1.3-18.7,0-8.6-2-19.6-6.6-28-9-5.3.8-14.2-1.4-18.7-4.4-15.3-1-31.4,5.5-46.7,6-7.5,6.4-19,3.9-28,4.7-18.6,4.4-37.4-5.7-56-7-11.3-6.8-25.5-1.1-37.3.7-15.1,1.4-31.2,6.7-46.7,6.4-8.9-.9-19.5,5-28,.5-5.6.3-14.6-3.7-18.7-7.5-8.5,1.2-19.5-3.1-28-1.9-10-3.7-18,5-28,.9-13.9,7.2-30.9,12-46.7,10.9-15.9,1-30.9-8.1-46.7-8.7-8.5-1.3-19.5-6-28-2.6-42.5,39.9-16.8-339.3-28-340.1Z"/>
</svg>