<?xml version="1.0" encoding="UTF-8"?>
<svg xmlns="http://www.w3.org/2000/svg" viewBox="0 0 1000 1000" width="1000" height="1000">
  <title>signature_curve_180</title>
  <desc>180 vertices; closed polyline path for vertex-decimation benchmarking.</desc>
  <path d="M 80.0000,555.3509 L 89.3333,603.9084 L 98.6667,616.2529 L 108.0000,600.8911 L 117.3333,602.6564 L 126.6667,631.5242 L 136.0000,671.8335 L 145.3333,709.2806 L 154.6667,703.3312 L 164.0000,647.2754 L 173.3333,547.5606 L 182.6667,460.0170 L 192.0000,399.6425 L 201.3333,391.7430 L 210.6667,398.5451 L 220.0000,394.5403 L 229.3333,384.7095 L 238.6667,341.4636 L 248.0000,298.1941 L 257.3333,292.9394 L 266.6667,333.3983 L 276.0000,417.5710 L 285.3333,517.5340 L 294.6667,579.6964 L 304.0000,607.4534 L 313.3333,603.4726 L 322.6667,593.4078 L 332.0000,612.7359 L 341.3333,651.7089 L 350.6667,700.0247 L 360.0000,712.0364 L 369.3333,680.2984 L 378.6667,600.2790 L 388.0000,506.9107 L 397.3333,427.7112 L 406.6667,388.9845 L 416.0000,396.7741 L 425.3333,406.3509 L 434.6667,397.1201 L 444.0000,361.4381 L 453.3333,311.3854 L 462.6667,284.7931 L 472.0000,305.6810 L 481.3333,371.9894 L 490.6667,474.8430 L 500.0000,554.7271 L 509.3333,607.3501 L 518.6667,609.8005 L 528.0000,606.7998 L 537.3333,606.7300 L 546.6667,624.4821 L 556.0000,672.1341 L 565.3333,714.0609 L 574.6667,701.4124 L 584.0000,649.5240 L 593.3333,551.2002 L 602.6667,457.2526 L 612.0000,406.1079 L 621.3333,391.3694 L 630.6667,393.4611 L 640.0000,395.0835 L 649.3333,376.9142 L 658.6667,341.4555 L 668.0000,299.4435 L 677.3333,286.9685 L 686.6667,334.4651 L 696.0000,418.6036 L 705.3333,511.9121 L 714.6667,588.5461 L 724.0000,607.3031 L 733.3333,607.2808 L 742.6667,598.4159 L 752.0000,609.4569 L 761.3333,655.2052 L 770.6667,691.4871 L 780.0000,713.5315 L 789.3333,674.0130 L 798.6667,599.3308 L 808.0000,501.5157 L 817.3333,425.4608 L 826.6667,397.2977 L 836.0000,394.4432 L 845.3333,398.0524 L 854.6667,397.6559 L 864.0000,355.4729 L 873.3333,312.3334 L 882.6667,292.2896 L 892.0000,309.9145 L 901.3333,372.3507 L 910.6667,477.5192 L 920.0000,898.8530 L 910.6667,901.4735 L 901.3333,905.5496 L 892.0000,905.0222 L 882.6667,905.1524 L 873.3333,903.4897 L 864.0000,901.8872 L 854.6667,901.5784 L 845.3333,897.7246 L 836.0000,896.8784 L 826.6667,894.2907 L 817.3333,893.8457 L 808.0000,896.1302 L 798.6667,895.4760 L 789.3333,897.8579 L 780.0000,901.4661 L 770.6667,901.1717 L 761.3333,903.0754 L 752.0000,907.3400 L 742.6667,907.2383 L 733.3333,904.1941 L 724.0000,902.2859 L 714.6667,902.2052 L 705.3333,900.5141 L 696.0000,895.2596 L 686.6667,896.6044 L 677.3333,895.5616 L 668.0000,894.7078 L 658.6667,895.2270 L 649.3333,895.9749 L 640.0000,898.1548 L 630.6667,904.2911 L 621.3333,903.4125 L 612.0000,906.5247 L 602.6667,904.9951 L 593.3333,906.4910 L 584.0000,903.9126 L 574.6667,900.4212 L 565.3333,897.4543 L 556.0000,897.3547 L 546.6667,893.0790 L 537.3333,892.9465 L 528.0000,894.5311 L 518.6667,896.9507 L 509.3333,898.0168 L 500.0000,899.1209 L 490.6667,904.1099 L 481.3333,903.2748 L 472.0000,903.7726 L 462.6667,905.0439 L 453.3333,904.9790 L 444.0000,901.7685 L 434.6667,899.9525 L 425.3333,898.2277 L 416.0000,896.7620 L 406.6667,893.3302 L 397.3333,893.4814 L 388.0000,895.8574 L 378.6667,897.4631 L 369.3333,898.1873 L 360.0000,900.7649 L 350.6667,902.7782 L 341.3333,903.0203 L 332.0000,903.8467 L 322.6667,904.0387 L 313.3333,906.8370 L 304.0000,904.3306 L 294.6667,903.0986 L 285.3333,896.8376 L 276.0000,897.0180 L 266.6667,894.7328 L 257.3333,894.9549 L 248.0000,893.5693 L 238.6667,897.5386 L 229.3333,895.8606 L 220.0000,900.1844 L 210.6667,903.3884 L 201.3333,906.0597 L 192.0000,906.6547 L 182.6667,906.7819 L 173.3333,906.3692 L 164.0000,905.1867 L 154.6667,900.6548 L 145.3333,899.4931 L 136.0000,898.0766 L 126.6667,896.2883 L 117.3333,893.7015 L 108.0000,895.4558 L 98.6667,896.9950 L 89.3333,897.8508 Z" fill="none" stroke="#000" stroke-width="1.5" stroke-linejoin="round"/>
</svg>
