<?xml version="1.0" encoding="UTF-8"?>
<svg id="Layer_1" xmlns="http://www.w3.org/2000/svg" version="1.1" viewBox="0 0 1000 1000">
  <!-- Generator: Adobe Illustrator 30.4.0, SVG Export Plug-In . SVG Version: 2.1.4 Build 226)  -->
  <defs>
    <style>
      .st0 {
        fill: none;
        stroke: #000;
        stroke-linejoin: round;
        stroke-width: 1.5px;
      }
    </style>
  </defs>
  <path class="st0" d="M508,500c1.3,10.6-13.9,13.6-18.8,5.1-7.8-12.1,7.2-25.8,19.4-20.4,24.1,10.8,8.7,45-15.1,41.4-60.2-16.7-8.1-99.2,43.3-56.3,45.6,46-11.1,113.6-67.3,94.5-57.3-17.2-70.7-94.3-32.6-136.6,116.3-110.2,261.1,54.6,172.1,177.9-41.8,58.4-123,80.3-190.3,58.6-128.9-40.9-173.3-206.9-104.1-317,105.5-173.8,363.8-154,473.2,5.5,176.8,256.8-46,587.2-339.7,591.1-42.3.8-124.2-11.5-164.4-24.7,0,0,224.4-419.2,224.4-419.2Z"/>
</svg>