<?xml version="1.0" encoding="UTF-8"?>
<svg xmlns="http://www.w3.org/2000/svg" viewBox="0 0 1000 1000" width="1000" height="1000">
  <title>spiral_200</title>
  <desc>153 vertices; closed polyline path for vertex-decimation benchmarking.</desc>
  <path d="M 508.0000,500.0000 L 508.0862,501.4714 L 507.9026,502.9746 L 507.4406,504.4601 L 506.7004,505.8767 L 505.6916,507.1724 L 504.4337,508.2965 L 502.9555,509.2013 L 501.2950,509.8440 L 499.4983,510.1882 L 497.6190,510.2056 L 495.7162,509.8776 L 493.8533,509.1961 L 492.0957,508.1646 L 490.5089,506.7987 L 489.1562,505.1262 L 488.0965,503.1869 L 487.3822,501.0318 L 487.0565,498.7221 L 487.1522,496.3277 L 487.6893,493.9251 L 488.6740,491.5953 L 490.0979,489.4216 L 491.9370,487.4864 L 494.1517,485.8686 L 496.6879,484.6408 L 499.4773,483.8662 L 502.4391,483.5963 L 505.4825,483.8683 L 508.5086,484.7029 L 511.4138,486.1032 L 514.0928,488.0529 L 516.4420,490.5163 L 518.3634,493.4383 L 519.7681,496.7452 L 520.5796,500.3461 L 520.7376,504.1350 L 520.2004,507.9938 L 518.9476,511.7953 L 516.9822,515.4073 L 514.3312,518.6968 L 511.0467,521.5341 L 507.2049,523.7978 L 502.9054,525.3792 L 498.2687,526.1869 L 493.4335,526.1505 L 488.5529,525.2244 L 483.7901,523.3906 L 479.3134,520.6610 L 475.2904,517.0786 L 471.8831,512.7177 L 469.2411,507.6832 L 467.4967,502.1084 L 466.7588,496.1528 L 467.1085,489.9974 L 468.5940,483.8400 L 471.2281,477.8894 L 474.9850,472.3593 L 479.7995,467.4607 L 485.5669,463.3948 L 492.1443,460.3459 L 499.3532,458.4740 L 506.9841,457.9078 L 514.8013,458.7391 L 522.5498,461.0171 L 529.9627,464.7449 L 536.7698,469.8762 L 542.7065,476.3148 L 547.5228,483.9147 L 550.9931,492.4823 L 552.9250,501.7805 L 553.1675,511.5341 L 551.6186,521.4374 L 548.2315,531.1624 L 543.0193,540.3692 L 536.0575,548.7165 L 527.4854,555.8731 L 517.5047,561.5302 L 506.3760,565.4125 L 494.4134,567.2897 L 481.9767,566.9868 L 469.4618,564.3932 L 457.2891,559.4698 L 445.8909,552.2545 L 435.6971,542.8650 L 427.1204,531.4994 L 420.5419,518.4340 L 416.2957,504.0178 L 414.6552,488.6654 L 415.8209,472.8459 L 419.9088,457.0705 L 426.9422,441.8771 L 436.8459,427.8137 L 449.4430,415.4204 L 464.4552,405.2106 L 481.5069,397.6521 L 500.1325,393.1484 L 519.7871,392.0221 L 539.8605,394.4987 L 559.6945,400.6940 L 578.6027,410.6041 L 595.8917,424.0987 L 610.8849,440.9186 L 622.9458,460.6773 L 631.5025,482.8671 L 636.0699,506.8697 L 636.2717,531.9710 L 631.8589,557.3796 L 622.7251,582.2503 L 608.9186,605.7088 L 590.6486,626.8805 L 568.2878,644.9199 L 542.3682,659.0407 L 513.5723,668.5462 L 482.7179,672.8577 L 450.7382,671.5405 L 418.6564,664.3272 L 387.5558,651.1354 L 358.5466,632.0813 L 332.7296,607.4863 L 311.1584,577.8780 L 294.8006,543.9831 L 284.5010,506.7147 L 280.9452,467.1504 L 284.6281,426.5061 L 295.8264,386.1014 L 314.5768,347.3213 L 340.6620,311.5723 L 373.6034,280.2362 L 412.6632,254.6214 L 456.8550,235.9151 L 504.9632,225.1354 L 555.5723,223.0882 L 607.1030,230.3274 L 657.8571,247.1226 L 706.0686,273.4338 L 749.9600,308.8959 L 787.8015,352.8128 L 817.9730,404.1628 L 839.0246,461.6152 L 849.7358,523.5583 L 849.1691,588.1387 L 836.7182,653.3103 L 812.1462,716.8936 L 775.6147,776.6422 L 727.7003,830.3151 L 669.3979,875.7531 L 602.1102,910.9569 L 527.6229,934.1637 L 448.0650,943.9200 L 365.8558,939.1484 L 283.6389,919.2047 L 508.0000,500.0000 Z" fill="none" stroke="#000" stroke-width="1.5" stroke-linejoin="round"/>
</svg>
