<?xml version="1.0" encoding="UTF-8"?>
<svg xmlns="http://www.w3.org/2000/svg" viewBox="0 0 1000 1000" width="1000" height="1000">
  <title>star_curved_160</title>
  <desc>160 vertices; closed polyline path for vertex-decimation benchmarking.</desc>
  <path d="M 500.0000,120.0000 L 514.6304,127.6311 L 528.5885,136.7482 L 541.7441,147.3055 L 553.9699,159.2475 L 565.1419,172.5097 L 575.1402,187.0184 L 583.8497,202.6916 L 591.1600,219.4383 L 596.9669,237.1598 L 601.1719,255.7493 L 603.6837,275.0927 L 604.4178,295.0685 L 603.2976,315.5489 L 600.2544,336.3997 L 595.2282,357.4809 L 588.1678,378.6475 L 597.4106,376.4353 L 607.5648,374.0578 L 618.6841,371.6083 L 630.8148,369.1852 L 643.9961,366.8914 L 658.2595,364.8336 L 673.6287,363.1222 L 690.1190,361.8705 L 707.7375,361.1942 L 726.4825,361.2113 L 746.3438,362.0408 L 767.3020,363.8029 L 789.3287,366.6176 L 812.3868,370.6052 L 836.4295,375.8846 L 861.4015,382.5735 L 858.6650,398.8460 L 854.3073,414.9383 L 848.3320,430.7125 L 840.7525,446.0301 L 831.5918,460.7535 L 820.8828,474.7460 L 808.6681,487.8724 L 795.0000,500.0000 L 779.9403,510.9989 L 763.5600,520.7426 L 745.9396,529.1089 L 727.1683,535.9799 L 707.3441,541.2433 L 686.5735,544.7923 L 664.9708,546.5266 L 642.6585,546.3525 L 647.6185,554.4594 L 653.0175,563.3819 L 658.7832,573.2000 L 664.8362,583.9882 L 671.0910,595.8156 L 677.4557,608.7450 L 683.8327,622.8331 L 690.1190,638.1295 L 696.2065,654.6768 L 701.9828,672.5096 L 707.3314,691.6551 L 712.1320,712.1320 L 716.2617,733.9506 L 719.5946,757.1123 L 722.0032,781.6097 L 723.3584,807.4265 L 707.0367,809.8523 L 690.3854,810.6808 L 673.5369,809.8724 L 656.6267,807.3973 L 639.7931,803.2347 L 623.1762,797.3737 L 606.9177,789.8132 L 591.1600,780.5617 L 576.0457,769.6378 L 561.7171,757.0703 L 548.3153,742.8976 L 535.9799,727.1683 L 524.8481,709.9409 L 515.0543,691.2835 L 506.7294,671.2741 L 500.0000,650.0000 L 493.8227,657.2224 L 487.0052,665.1144 L 479.4493,673.6318 L 471.0596,682.7223 L 461.7440,692.3259 L 451.4142,702.3745 L 439.9862,712.7928 L 427.3810,723.4983 L 413.5248,734.4012 L 398.3497,745.4055 L 381.7940,756.4085 L 363.8029,767.3020 L 344.3283,777.9718 L 323.3302,788.2990 L 300.7760,798.1598 L 276.6416,807.4265 L 269.2908,792.6533 L 263.3574,777.0729 L 258.9197,760.7992 L 256.0482,743.9518 L 254.8051,726.6558 L 255.2443,709.0411 L 257.4107,691.2420 L 261.3400,673.3966 L 267.0586,655.6465 L 274.5833,638.1356 L 283.9209,621.0101 L 295.0685,604.4178 L 308.0129,588.5073 L 322.7306,573.4274 L 339.1881,559.3266 L 357.3415,546.3525 L 348.5637,542.7095 L 338.9512,538.6644 L 328.5158,534.1103 L 317.2777,528.9404 L 305.2655,523.0483 L 292.5166,516.3293 L 279.0767,508.6801 L 265.0000,500.0000 L 250.3489,490.1912 L 235.1938,479.1593 L 219.6133,466.8141 L 203.6935,453.0697 L 187.5279,437.8454 L 171.2174,421.0663 L 154.8696,402.6632 L 138.5985,382.5735 L 150.3771,371.0173 L 163.3614,360.5597 L 177.4673,351.3104 L 192.6027,343.3733 L 208.6681,336.8463 L 225.5564,331.8208 L 243.1538,328.3809 L 261.3400,326.6034 L 279.9886,326.5570 L 298.9677,328.3022 L 318.1404,331.8908 L 337.3654,337.3654 L 356.4973,344.7596 L 375.3872,354.0971 L 393.8834,365.3918 L 411.8322,378.6475 L 345.6796,469.3038 L 358.7815,586.5388 L 452.5403,668.2793 L 583.9882,664.8362 L 683.9735,567.8714 L 692.2824,420.3540 L 592.5631,299.2152 L 427.3810,276.5017 L 282.0123,377.9210 L 241.7142,562.0089 L 343.1382,734.7602 L 546.9303,796.3065 L 750.1971,697.2395 L 837.0827,473.4710 L 743.4137,236.6765 Z" fill="none" stroke="#000" stroke-width="1.5" stroke-linejoin="round"/>
</svg>
