<?xml version="1.0" encoding="UTF-8"?>
<svg id="Layer_1" xmlns="http://www.w3.org/2000/svg" version="1.1" viewBox="0 0 1000 1000">
  <!-- Generator: Adobe Illustrator 30.4.0, SVG Export Plug-In . SVG Version: 2.1.4 Build 226)  -->
  <defs>
    <style>
      .st0 {
        fill: none;
        stroke: #000;
        stroke-linejoin: round;
        stroke-width: 1.5px;
      }
    </style>
  </defs>
  <path class="st0" d="M500,120c88,39.6,122.6,148.8,95.2,237.5.4,7.7-16.9,27.1,2.2,19,14.5-3.5,31.9-7.2,46.6-9.5,39.9-6.5,83.1-7.3,123.3-3.1,29.9,3.2,65.2,10.4,94.1,18.8-7.4,65.4-55.4,121.9-115.5,146.5-103.2,42.7-124.1-20.9-74.8,66.7,25.6,49.6,41.7,105.9,48.5,161.3,1.4,12.4,3.4,37.8,3.8,50.3,0,0-16.3,2.4-16.3,2.4-81.6,8.6-159-45.8-192-118.6-24.5-60.5-4.5-43.6-53.3,1-39.3,39.7-87.9,72.4-138.4,96-11.4,5.2-34.9,14.9-46.7,19.1-10.3-18.5-18-42.5-20.6-63.5-7.8-63.2,20.7-127.8,66.7-170.5,27.6-29.5,53.4-21,5.8-39.3-59.2-25.9-113.4-65.8-157.3-113-8.5-9.2-24.9-28.6-32.6-38.5,18.6-20,44.4-36.7,70.1-45.7,68.8-24.4,147.7-3.5,203.2,41.8-69.9,81-71.1,104.6-53,207.9,0,0,93.7,81.7,93.7,81.7,125.9,7.2,148.2-9.5,231.4-100.4,19.8-140.5,2.9-167-91.4-268.6,0,0-165.2-22.7-165.2-22.7-147.7,85.7-159.6,120.9-185.6,285.5,83.5,174,122,190.4,305.2,234.3,0,0,203.2-99,203.2-99,101.1-207.6,88.4-256.1-6.8-460.6,0,0-243.4-116.7-243.4-116.7Z"/>
</svg>